PathFileType	4	(X/Y/Z)	c:/Users/goper/Files/vsCode/490R/osim_files/C12/C12_Slow_03.trc
DataRate	CameraRate	NumFrames	NumMarkers	Units                	OrigDataRate	OrigDataStartFrame	OrigNumFrames
120.00	120.00	9	36	mm	120.0	740	1479
                Frame#	Time	LPSIS			LASIS			LTH1			LTH2			LTH3			LTH4			LLFE			LMFE			LSH1			LSH2			LSH3			LSH4			LLMAL			LMMAL			LCAL			LMTP5			LTOE			LMTP1			RPSIS			RASIS			RTH1			RTH2			RTH3			RTH4			RLFE			RMFE			RSH1			RSH2			RSH3			RSH4			RLMAL			RMMAL			RCAL			RMTP1			RTOE			RMTP5		
		X1	Y1	Z1	X2	Y2	Z2	X3	Y3	Z3	X4	Y4	Z4	X5	Y5	Z5	X6	Y6	Z6	X7	Y7	Z7	X8	Y8	Z8	X9	Y9	Z9	X10	Y10	Z10	X11	Y11	Z11	X12	Y12	Z12	X13	Y13	Z13	X14	Y14	Z14	X15	Y15	Z15	X16	Y16	Z16	X17	Y17	Z17	X18	Y18	Z18	X19	Y19	Z19	X20	Y20	Z20	X21	Y21	Z21	X22	Y22	Z22	X23	Y23	Z23	X24	Y24	Z24	X25	Y25	Z25	X26	Y26	Z26	X27	Y27	Z27	X28	Y28	Z28	X29	Y29	Z29	X30	Y30	Z30	X31	Y31	Z31	X32	Y32	Z32	X33	Y33	Z33	X34	Y34	Z34	X35	Y35	Z35	X36	Y36	Z36

740	6.15833	-80.60389	1083.23047	380.79352	-257.01404	1033.88562	437.72104	-166.23328	749.63080	474.98026	-171.56207	705.98901	470.11185	-227.24088	753.87921	481.63846	-224.96997	709.23297	475.67010	-212.22899	533.19202	418.75455	-207.40308	534.26178	293.01575	-146.75732	439.88593	433.83575	-145.53685	391.76050	438.20731	-206.65578	431.60907	425.11060	-195.86168	385.50146	428.18793	-131.39880	101.41930	379.02448	-137.68610	107.16522	301.66324	-65.04091	77.51338	342.62537	-261.51401	38.28917	397.44901	-310.32654	67.53036	325.39261	-275.25400	39.96363	283.80609	-65.79776	1078.05945	266.86694	-243.66850	1045.28162	182.35387	-207.82451	765.54041	99.74948	-231.03973	723.39447	100.91521	-270.30807	784.80078	95.78305	-283.12360	739.05811	97.10714	-293.45648	555.43292	114.50372	-324.03195	550.01410	248.01651	-199.05064	511.64572	110.35282	-173.87886	477.20929	106.29073	-245.21709	469.14651	103.24485	-212.31143	442.29251	99.32872	-12.78646	234.54272	162.48685	-52.23576	228.96104	238.22255	52.63441	248.13518	221.29234	-102.71677	95.79038	227.22234	-139.02438	86.64542	185.08485	-77.42625	84.77285	124.13597
741	6.16667	-88.39065	1083.60754	380.30643	-264.82764	1034.07227	438.06873	-171.11345	750.31201	474.69354	-175.94759	706.57874	469.86203	-232.15010	753.61713	481.25894	-229.45468	709.12793	475.66339	-214.30347	533.22614	418.76666	-209.91513	534.10095	293.03073	-148.68369	440.25403	433.76675	-147.18413	392.28650	438.10034	-208.42621	431.87634	424.91815	-197.36652	385.56845	427.98312	-131.76126	101.88507	378.89655	-137.99365	107.47981	301.61066	-65.51546	77.86959	342.54071	-261.61896	38.26972	397.41803	-310.57605	67.25581	325.24551	-275.45551	39.89120	283.80884	-73.63400	1078.40466	266.29196	-251.97574	1045.76343	182.79068	-216.19958	768.38116	97.59332	-242.82867	725.11639	100.66504	-280.63641	787.55151	96.17458	-294.99365	741.32751	97.28999	-308.32471	558.29602	115.33968	-336.83884	553.05750	248.81831	-214.75896	510.89078	110.92980	-190.86073	475.46320	106.63329	-262.65991	470.43564	104.18844	-230.50024	442.04224	99.69699	-38.88254	226.23564	161.61736	-78.06183	222.22951	237.29405	28.07015	236.95659	220.24617	-134.80640	91.75241	224.95284	-171.41949	84.72437	182.83876	-110.62606	81.31287	121.56113
742	6.17500	-96.08759	1083.89001	379.82513	-272.53802	1034.30261	438.36322	-176.00278	750.84808	474.41687	-179.76065	707.51007	470.12766	-236.97806	753.47839	481.21573	-233.89166	709.05579	475.58554	-216.47456	533.25110	418.71994	-212.33969	534.08624	292.93384	-150.70918	440.70450	433.74771	-149.10765	392.59769	438.02469	-210.37004	431.91702	424.65958	-199.23221	385.79892	427.75525	-131.72902	102.79988	379.25635	-138.14062	108.03242	301.90042	-65.35621	78.91308	343.31183	-261.66071	38.26714	397.41095	-310.75272	67.09265	325.24429	-275.56116	39.82093	283.76950	-81.57971	1078.43384	265.82336	-260.37076	1046.41016	183.20950	-226.96147	769.97778	97.27663	-254.10956	726.72089	100.71528	-291.24130	789.83868	96.50182	-306.56726	743.33173	97.50050	-322.55194	560.58051	116.60252	-351.22937	556.38025	249.60992	-230.09737	509.75864	111.64632	-207.50980	473.46756	107.07098	-279.50433	471.19275	105.01915	-248.53891	441.59219	100.27708	-65.00904	218.18910	160.50082	-104.15121	215.40939	236.24222	2.37685	225.08244	218.92638	-166.98421	88.11613	222.85623	-204.46875	83.48320	180.57195	-143.76492	77.61410	119.40632
743	6.18333	-103.92490	1083.94214	379.38370	-280.29538	1034.31030	438.58838	-180.90588	751.30640	474.14783	-184.32599	707.94897	469.77792	-241.78401	753.21204	481.17578	-238.39893	708.83624	475.42163	-218.62227	533.22443	418.71185	-214.73845	533.94928	292.82614	-152.79529	441.00635	433.67422	-150.95557	392.92850	438.01566	-212.25333	432.11499	424.50241	-200.96928	385.96823	427.54526	-132.03665	103.29704	379.14221	-138.40309	108.34546	301.85104	-65.58060	79.31067	343.32819	-261.68491	38.23417	397.41815	-310.91199	66.86469	325.24536	-275.65887	39.75282	283.72861	-89.43948	1078.30200	265.30185	-268.30911	1046.71387	183.55800	-240.38664	771.57666	97.15776	-267.03430	727.29205	99.55547	-302.02774	791.69940	96.76464	-317.87216	745.07245	97.74776	-336.30295	562.61426	117.74062	-363.04514	559.04950	250.46902	-245.17657	508.22833	112.27487	-223.99471	471.16663	107.53657	-296.10794	471.65610	105.78032	-266.17535	440.89835	100.89036	-91.97250	209.49329	158.91071	-130.53928	208.38930	235.16174	-23.72478	213.04906	217.36374	-199.76675	84.61171	220.89432	-237.36504	82.29246	179.26686	-177.48119	73.93441	117.30719
744	6.19167	-111.75916	1083.89587	378.99271	-288.01703	1034.20178	438.84402	-185.94856	751.59979	473.79074	-188.88266	708.25665	469.49844	-246.89021	753.02368	481.01041	-242.94467	708.60950	475.24329	-220.72758	533.20441	418.67880	-217.41772	533.87634	292.67651	-154.90315	441.34955	433.65234	-152.89131	393.21609	437.96191	-214.26849	432.19910	424.25085	-202.72816	386.15994	427.40714	-132.34908	103.71380	379.06491	-138.73112	108.62814	301.77045	-66.12294	79.46503	343.23572	-261.70605	38.17064	397.44226	-311.10440	66.60780	325.25873	-275.76526	39.57890	283.57086	-97.33469	1078.12500	264.84351	-276.43875	1047.13623	183.88168	-255.16908	773.40692	96.71896	-278.41379	728.47650	99.72783	-312.90060	793.17059	96.96294	-328.93616	746.55139	98.04088	-349.58914	564.28424	118.86942	-374.96283	561.27753	251.52649	-260.58780	506.38467	112.37249	-240.31424	468.51736	107.99672	-312.38635	471.96454	106.56972	-283.72293	439.96979	101.34122	-119.21435	201.11067	157.35992	-156.94769	201.45987	233.89244	-50.41264	200.89404	215.48015	-232.56667	81.20529	219.31383	-270.54874	81.17910	177.91896	-211.51196	70.41037	115.45169
745	6.20000	-119.60355	1083.78394	378.51025	-295.79022	1033.93188	438.94086	-191.15607	751.81573	473.36942	-193.53072	708.49280	469.11630	-252.02263	752.68616	480.70789	-247.47188	708.37903	474.92096	-223.02995	533.22314	418.58087	-220.14935	533.77100	292.45447	-156.94469	441.72052	433.54425	-154.75220	393.64325	437.82697	-216.38062	432.28070	424.00754	-204.53238	386.27463	427.11365	-132.65903	104.12745	378.93625	-139.01041	109.15285	302.18854	-63.62335	81.96523	344.84637	-261.77310	38.11786	397.43802	-311.26474	66.40737	325.25760	-275.85364	39.47084	283.52521	-105.30605	1077.78613	264.31985	-284.47369	1047.30151	183.95329	-270.06177	775.10352	96.21635	-289.71848	729.14233	99.86339	-323.76505	794.28925	97.09659	-339.78705	747.77039	98.38893	-362.47964	565.59149	119.99422	-386.60654	563.12427	252.75731	-274.41397	504.43784	113.40903	-256.49869	465.62238	108.25034	-328.42725	471.99036	107.24491	-301.32840	439.18817	101.65915	-147.00955	192.47824	155.75046	-184.10268	194.43524	232.59212	-77.73486	188.69806	213.29405	-265.77966	78.20797	218.07379	-303.97195	80.32588	176.95567	-246.13307	67.11259	113.88149
746	6.20833	-127.37113	1083.62085	377.96521	-303.64041	1033.63037	438.86801	-196.10475	752.16492	472.92966	-198.23163	708.76807	468.63498	-256.95798	752.36963	480.25226	-252.05768	708.07849	474.59409	-224.76703	532.70569	418.52615	-223.04611	533.61188	292.27609	-158.86203	442.07385	433.32584	-156.39922	394.01315	437.66681	-218.30057	432.32739	423.68558	-206.28333	386.38922	426.91846	-132.96294	104.58482	378.79761	-138.73015	109.50492	301.90375	-63.65495	82.47878	344.71573	-261.84158	38.07814	397.37363	-311.63254	66.34949	325.21552	-275.91409	39.35724	283.46622	-113.13727	1077.55688	263.72791	-292.54242	1047.33752	184.05884	-283.81760	776.30145	95.90603	-300.76059	729.67780	100.19115	-334.52597	795.09259	97.16549	-350.45267	748.73132	98.80103	-374.74026	566.66089	120.97040	-397.71722	564.47144	254.11046	-288.66223	501.98553	113.78349	-272.61963	462.37698	108.30557	-344.21640	471.85565	107.98222	-318.43652	437.73785	102.11672	-175.06366	184.28622	154.27542	-211.52510	187.51474	231.17970	-105.49481	176.70461	210.84917	-298.88062	75.56107	216.91731	-337.59839	80.25524	176.01895	-280.77115	64.20842	112.50967
747	6.21667	-135.24908	1083.27209	377.37598	-311.45734	1033.29883	438.77557	-201.23819	752.36444	472.41837	-202.92134	708.95557	468.15402	-261.84094	752.18463	480.00549	-256.76196	707.77020	474.11334	-227.17592	532.67377	418.30573	-225.90971	533.44659	292.01901	-160.66411	442.45575	433.13611	-157.95514	394.41220	437.39584	-220.02263	432.38187	423.59586	-207.85033	386.53778	426.67566	-133.23495	104.99506	378.67432	-138.96973	109.82237	301.84616	-63.85085	82.88800	344.64645	-261.84769	38.07126	397.35419	-311.75409	66.21951	325.19257	-275.93796	39.27360	283.43970	-121.12230	1077.17175	263.12112	-300.69901	1047.38440	184.03603	-295.18951	776.63605	96.04414	-311.81635	729.86890	100.54566	-345.08835	795.61749	97.16951	-360.96075	749.43591	99.28626	-386.78339	567.40430	122.25324	-408.49258	565.49066	255.54460	-302.82114	499.20947	114.12254	-288.59128	458.92551	108.22738	-359.67761	471.58313	108.75877	-335.27448	435.97357	102.59924	-203.85423	175.84134	152.21271	-239.12621	180.79285	229.69635	-134.23848	164.83876	208.08876	-332.22684	73.39923	216.60179	-370.84558	80.27911	175.42627	-315.89697	61.76837	111.39742
748	6.22500	-143.06256	1082.96094	376.74191	-319.26736	1032.75525	438.65295	-206.40643	752.58246	471.89886	-207.66429	709.10864	467.66342	-267.03806	751.77405	479.57434	-261.51328	707.39288	473.54077	-229.65514	532.53986	418.03970	-228.91898	533.14117	291.88065	-162.45755	442.81360	432.81256	-159.52820	394.80988	437.14932	-221.74797	432.48645	423.46225	-209.36632	386.72427	426.57950	-133.47879	105.41129	378.53528	-139.03316	110.18704	301.57642	-63.99893	83.27565	344.60516	-261.85941	38.08703	397.34656	-311.55655	66.02920	325.35608	-275.62030	39.15635	283.31561	-129.18187	1076.73535	262.48758	-308.84546	1047.22681	183.87723	-304.16483	776.14008	96.67937	-322.54874	729.92944	100.99333	-355.35724	795.90100	97.10854	-371.33917	749.88586	99.85371	-398.27740	567.99274	123.89149	-418.83817	566.16058	257.07941	-316.70081	496.18668	114.41966	-304.42010	455.22974	108.28402	-374.83319	471.07468	109.47197	-351.76047	434.20547	102.77589	-233.29543	167.86020	150.07457	-268.15149	173.87738	228.63647	-163.25485	152.47713	204.55072	-365.54828	72.01125	215.82870	-404.25580	80.76988	175.59702	-351.18469	60.10105	110.55266
